# xmcd
#
# Track frame offsets:
#	150
#	18560
#	37594
#	52638
#	67266
#	84153
#	96761
#	115108
#	127272
#	140811
#	157665
#	162310
#	164811
#	166783
#	169286
#	170623
#	173474
#	176485
#	178434
#	180699
#	184817
#	186240
#	189781
#	192374
#	195474
#	198135
#	199971
#	202892
#	205069
#	208782
#	211319
#	215189
#	216677
#	219990
#	225567
#	228711
#	233317
#	236391
#	238309
#	243863
#	247927
#	250456
#	253688
#	255203
#	257037
#	258590
#	260771
#	261986
#	264141
#	266525
#	268713
#	270254
#
# Disc length: 3657
#
# Revision: 1
# Processed by: cddbd v1.5.1PL0 Copyright (c) Steve Scherf et al.
# Submitted via: VisiTrax 2.9.5.180 - For more info visit www.synapsa.com
# Normalized: r0:DSETVAR1
#
DISCID=fa0e4734
DTITLE=Various Artist - CDX 197 September 1998
DYEAR=1998
DGENRE=
TTITLE0=Vern Gosdin - Baby that's cold
TTITLE1=John Michael Montgomery - Hold on to me
TTITLE2=Bill Engvall - I'm a cowboy
TTITLE3=Vince Gill - Kindly keep it country
TTITLE4=Jo Dee Messina - Stand beside me
TTITLE5=Brady Seals - Whole lotta hurt
TTITLE6=Lee Greenwood - Wounded heart
TTITLE7=Copperhead - She's too hot (to be an old flame)
TTITLE8=Vince Vance& The Valiants - Tamale wagon
TTITLE9=Cledus T Judd - First redneck on the internet
TTITLE10=Bill Engvall - Comedy Spotlight
TTITLE11=Bill Engvall - Comedy Spotlight
TTITLE12=Bill Engvall - Comedy Spotlight
TTITLE13=Bill Engvall - Comedy Spotlight
TTITLE14=Bill Engvall - Comedy Spotlight
TTITLE15=Bill Engvall - Comedy Spotlight
TTITLE16=Bill Engvall - Comedy Spotlight
TTITLE17=Bill Engvall - Comedy Spotlight
TTITLE18=Bill Engvall - Comedy Spotlight
TTITLE19=Bill Engvall - Comedy Spotlight
TTITLE20=Bill Engvall - Comedy Spotlight
TTITLE21=Bill Engvall - Comedy Spotlight
TTITLE22=Bill Engvall - Comedy Spotlight
TTITLE23=Bill Engvall - Comedy Spotlight
TTITLE24=Bill Engvall - Comedy Spotlight
TTITLE25=Bill Engvall - Comedy Spotlight
TTITLE26=Bill Engvall - Comedy Spotlight
TTITLE27=Bill Engvall - Comedy Spotlight
TTITLE28=Bill Engvall - Comedy Spotlight
TTITLE29=Bill Engvallv - Comedy Spotlight
TTITLE30=Bill Engvall - Comedy Spotlight
TTITLE31=Bill Engvall - Comedy Spotlight
TTITLE32=Bill Engvall - Comedy Spotlight
TTITLE33=Bill Engvall - Comedy Spotlight
TTITLE34=Bill Engvall - Comedy Spotlight
TTITLE35=Bill Engvall - Comedy Spotlight
TTITLE36=Bill Engvall - Comedy Spotlight
TTITLE37=Bill Engvall - Comedy Spotlight
TTITLE38=Bill Engvall - Comedy Spotlight
TTITLE39=Bill Engvall - Comedy Spotlight
TTITLE40=Bill Engvall - Comedy Spotlight
TTITLE41=Bill Engvall - Comedy Spotlight
TTITLE42=Bill Engvall - Comedy Spotlight
TTITLE43=Bill Engvall - Comedy Spotlight
TTITLE44=Bill Engvall - Comedy Spotlight
TTITLE45=Bill Engvall - Comedy Spotlight
TTITLE46=Bill Engvall - Comedy Spotlight
TTITLE47=Bill Engvall - Comedy Spotlight
TTITLE48=Bill Engvall - Comedy Spotlight
TTITLE49=Bill Engvall - Comedy Spotlight
TTITLE50=Bill Engvall - Comedy Spotlight
TTITLE51=Bill Engvall - Comedy Spotlight
EXTD=
EXTT0=
EXTT1=
EXTT2=
EXTT3=
EXTT4=
EXTT5=
EXTT6=
EXTT7=
EXTT8=
EXTT9=
EXTT10=
EXTT11=
EXTT12=
EXTT13=
EXTT14=
EXTT15=
EXTT16=
EXTT17=
EXTT18=
EXTT19=
EXTT20=
EXTT21=
EXTT22=
EXTT23=
EXTT24=
EXTT25=
EXTT26=
EXTT27=
EXTT28=
EXTT29=
EXTT30=
EXTT31=
EXTT32=
EXTT33=
EXTT34=
EXTT35=
EXTT36=
EXTT37=
EXTT38=
EXTT39=
EXTT40=
EXTT41=
EXTT42=
EXTT43=
EXTT44=
EXTT45=
EXTT46=
EXTT47=
EXTT48=
EXTT49=
EXTT50=
EXTT51=
PLAYORDER=
